<?xml version="1.0" encoding="utf-8"?>
<!-- Generator: Adobe Illustrator 24.0.1, SVG Export Plug-In . SVG Version: 6.00 Build 0)  -->
<svg version="1.1" id="Layer_1" xmlns="http://www.w3.org/2000/svg" xmlns:xlink="http://www.w3.org/1999/xlink" x="0px" y="0px"
	 viewBox="0 0 118.7 109.2" style="enable-background:new 0 0 118.7 109.2;" xml:space="preserve">
<style type="text/css">
	.st0{clip-path:url(#SVGID_1_);}
	.st1{clip-path:url(#SVGID_2_);}
	.st2{clip-path:url(#SVGID_3_);}
	.st3{clip-path:url(#SVGID_4_);}
	.st4{clip-path:url(#SVGID_5_);fill:#FFFDE9;}
	.st5{clip-path:url(#SVGID_6_);fill:#FFFDE9;}
	.st6{clip-path:url(#SVGID_7_);fill:#FFFDE9;}
	.st7{clip-path:url(#SVGID_8_);fill:#FFFDE9;}
	.st8{clip-path:url(#SVGID_9_);fill:#FFFDE9;}
	.st9{clip-path:url(#SVGID_10_);fill:#FFFDE9;}
	.st10{clip-path:url(#SVGID_11_);fill:#FFFDE9;}
	.st11{clip-path:url(#SVGID_12_);fill:#FFFDE9;}
	.st12{clip-path:url(#SVGID_13_);fill:#FFFDE9;}
	.st13{clip-path:url(#SVGID_14_);fill:#FFFDE9;}
	.st14{clip-path:url(#SVGID_15_);fill:#FFFDE9;}
	.st15{clip-path:url(#SVGID_16_);fill:#FFFDE9;}
	.st16{clip-path:url(#SVGID_17_);fill:#FFFDE9;}
	.st17{clip-path:url(#SVGID_18_);fill:#FFFDE9;}
	.st18{clip-path:url(#SVGID_19_);fill:#FFFDE9;}
	.st19{clip-path:url(#SVGID_20_);fill:#FFFDE9;}
	.st20{clip-path:url(#SVGID_21_);fill:#FFFDE9;}
	.st21{clip-path:url(#SVGID_22_);fill:#FFFDE9;}
	.st22{clip-path:url(#SVGID_23_);fill:#FFFDE9;}
	.st23{clip-path:url(#SVGID_24_);fill:#FFFDE9;}
	.st24{clip-path:url(#SVGID_25_);fill:#FFFDE9;}
	.st25{clip-path:url(#SVGID_26_);fill:#FFFDE9;}
	.st26{clip-path:url(#SVGID_27_);fill:#FFFDE9;}
	.st27{clip-path:url(#SVGID_28_);fill:#FFFDE9;}
	.st28{clip-path:url(#SVGID_29_);fill:#FFFDE9;}
	.st29{clip-path:url(#SVGID_30_);fill:#FFFDE9;}
	.st30{clip-path:url(#SVGID_31_);fill:#FFFDE9;}
	.st31{clip-path:url(#SVGID_32_);fill:#FFFDE9;}
	.st32{clip-path:url(#SVGID_33_);fill:#FFFDE9;}
	.st33{clip-path:url(#SVGID_34_);fill:#FFFDE9;}
	.st34{clip-path:url(#SVGID_35_);fill:#FFFDE9;}
	.st35{clip-path:url(#SVGID_36_);fill:#FFFDE9;}
	.st36{clip-path:url(#SVGID_37_);fill:#FFFDE9;}
	.st37{clip-path:url(#SVGID_38_);fill:#FFFDE9;}
	.st38{clip-path:url(#SVGID_39_);fill:#FFFDE9;}
	.st39{clip-path:url(#SVGID_40_);fill:#FFFDE9;}
	.st40{clip-path:url(#SVGID_41_);fill:#FFFDE9;}
	.st41{clip-path:url(#SVGID_42_);fill:#FFFDE9;}
	.st42{clip-path:url(#SVGID_43_);fill:#FFFDE9;}
	.st43{clip-path:url(#SVGID_44_);fill:#FFFDE9;}
	.st44{clip-path:url(#SVGID_45_);fill:#FFFDE9;}
	.st45{clip-path:url(#SVGID_46_);fill:#FFFDE9;}
	.st46{clip-path:url(#SVGID_2_);fill:#2E3192;}
	.st47{clip-path:url(#SVGID_2_);fill:#00A651;}
</style>
<g>
	<defs>
		<rect id="SVGID_93_" x="-5" y="-6" width="129.2" height="125.8"/>
	</defs>
	<clipPath id="SVGID_1_">
		<use xlink:href="#SVGID_93_"  style="overflow:visible;"/>
	</clipPath>
	<g class="st0">
		<defs>
			<rect id="SVGID_95_" x="-5" y="-6" width="129.2" height="125.8"/>
		</defs>
		<clipPath id="SVGID_2_">
			<use xlink:href="#SVGID_95_"  style="overflow:visible;"/>
		</clipPath>
		<g class="st1">
			<defs>
				<rect id="SVGID_97_" x="111.1" y="137.8" width="250.6" height="155.9"/>
			</defs>
			<clipPath id="SVGID_3_">
				<use xlink:href="#SVGID_97_"  style="overflow:visible;"/>
			</clipPath>
			<g class="st2">
				<defs>
					<rect id="SVGID_99_" x="6.7" y="73.6" width="359.2" height="372.3"/>
				</defs>
				<clipPath id="SVGID_4_">
					<use xlink:href="#SVGID_99_"  style="overflow:visible;"/>
				</clipPath>
				<g class="st3">
					<g>
						<defs>
							<rect id="SVGID_101_" x="124" y="108" width="76" height="214.9"/>
						</defs>
						<clipPath id="SVGID_5_">
							<use xlink:href="#SVGID_101_"  style="overflow:visible;"/>
						</clipPath>
						<path class="st4" d="M124,108c43.8,56.6,75.5,111.8,75.5,161.7c0,3.8-0.2,7.6-0.6,11.4c-1.5,14.9-6.2,28.8-13.6,41.8h0.5
							c7.4-13,12.1-27,13.6-41.8c0.4-3.8,0.6-7.6,0.6-11.5c0-49.9-31.6-105.1-75.4-161.7H124z"/>
					</g>
				</g>
				<g class="st3">
					<g>
						<defs>
							<rect id="SVGID_103_" x="122.7" y="108" width="76.4" height="214.9"/>
						</defs>
						<clipPath id="SVGID_6_">
							<use xlink:href="#SVGID_103_"  style="overflow:visible;"/>
						</clipPath>
						<path class="st5" d="M122.7,108c44,56.8,76,112.2,76,162.2c0,3.9-0.2,7.7-0.6,11.5c-1.5,14.7-6,28.4-13.3,41.3h0.5
							c7.2-12.9,11.8-26.7,13.3-41.2c0.4-3.8,0.6-7.7,0.6-11.5c0-50.1-31.8-105.4-75.8-162.2H122.7z"/>
					</g>
				</g>
				<g class="st3">
					<g>
						<defs>
							<rect id="SVGID_105_" x="121.5" y="108" width="76.9" height="214.9"/>
						</defs>
						<clipPath id="SVGID_7_">
							<use xlink:href="#SVGID_105_"  style="overflow:visible;"/>
						</clipPath>
						<path class="st6" d="M121.5,108c44.3,57,76.4,112.6,76.4,162.8c0,3.8-0.2,7.6-0.6,11.4c-1.5,14.5-5.9,28-13,40.7h0.5
							c7-12.7,11.5-26.3,13-40.6c0.4-3.8,0.6-7.6,0.6-11.5c0-50.3-32.1-105.8-76.3-162.8H121.5z"/>
					</g>
				</g>
				<g class="st3">
					<g>
						<defs>
							<rect id="SVGID_107_" x="120.3" y="108" width="77.3" height="214.9"/>
						</defs>
						<clipPath id="SVGID_8_">
							<use xlink:href="#SVGID_107_"  style="overflow:visible;"/>
						</clipPath>
						<path class="st7" d="M120.3,108c44.5,57.2,76.8,113,76.8,163.3c0,3.9-0.2,7.7-0.6,11.5c-1.5,14.3-5.8,27.6-12.6,40.1h0.5
							c6.9-12.6,11.2-26,12.7-40.1c0.4-3.8,0.6-7.6,0.6-11.5c0-50.4-32.3-106.1-76.7-163.3H120.3z"/>
					</g>
				</g>
				<g class="st3">
					<g>
						<defs>
							<rect id="SVGID_109_" x="119.1" y="108" width="77.7" height="214.9"/>
						</defs>
						<clipPath id="SVGID_9_">
							<use xlink:href="#SVGID_109_"  style="overflow:visible;"/>
						</clipPath>
						<path class="st8" d="M119.1,108c48.1,61.8,82.1,121.9,76.7,175.4c-1.4,14.1-5.6,27.2-12.3,39.6h0.5
							c6.7-12.4,10.9-25.6,12.3-39.5c0.4-3.8,0.6-7.6,0.6-11.5c0-50.6-32.5-106.6-77.1-163.9H119.1z"/>
					</g>
				</g>
				<g class="st3">
					<g>
						<defs>
							<rect id="SVGID_111_" x="117.8" y="108" width="78.2" height="214.9"/>
						</defs>
						<clipPath id="SVGID_10_">
							<use xlink:href="#SVGID_111_"  style="overflow:visible;"/>
						</clipPath>
						<path class="st9" d="M117.8,108c45,57.6,77.7,113.8,77.7,164.5c0,3.8-0.2,7.6-0.6,11.5c-1.4,13.8-5.5,26.7-12,39h0.5
							c6.5-12.3,10.6-25.3,12-39c0.4-3.8,0.6-7.6,0.6-11.5c0-50.8-32.7-106.9-77.6-164.5H117.8z"/>
					</g>
				</g>
				<g class="st3">
					<g>
						<defs>
							<rect id="SVGID_113_" x="116.6" y="108" width="78.7" height="214.9"/>
						</defs>
						<clipPath id="SVGID_11_">
							<use xlink:href="#SVGID_113_"  style="overflow:visible;"/>
						</clipPath>
						<path class="st10" d="M116.6,108c45.2,57.8,78.2,114.2,78.2,165.1c0,3.8-0.2,7.7-0.6,11.4c-1.4,13.6-5.3,26.4-11.7,38.4h0.5
							c6.3-12.1,10.3-24.9,11.7-38.4c0.4-3.8,0.6-7.7,0.6-11.5c0-50.9-32.9-107.3-78-165.1H116.6z"/>
					</g>
				</g>
				<g class="st3">
					<g>
						<defs>
							<rect id="SVGID_115_" x="115.3" y="108" width="79.1" height="214.9"/>
						</defs>
						<clipPath id="SVGID_12_">
							<use xlink:href="#SVGID_115_"  style="overflow:visible;"/>
						</clipPath>
						<path class="st11" d="M115.3,108c48.8,62.4,83.6,123.1,78,177.1c-1.4,13.4-5.2,26-11.4,37.9h0.5c6.1-11.9,10.1-24.6,11.4-37.8
							c0.4-3.8,0.6-7.6,0.6-11.5c0-51.1-33.1-107.6-78.4-165.6H115.3z"/>
					</g>
				</g>
				<g class="st3">
					<g>
						<defs>
							<rect id="SVGID_117_" x="114.1" y="108" width="79.6" height="214.9"/>
						</defs>
						<clipPath id="SVGID_13_">
							<use xlink:href="#SVGID_117_"  style="overflow:visible;"/>
						</clipPath>
						<path class="st12" d="M114.1,108c49.1,62.6,84,123.5,78.5,177.6c-1.3,13.2-5,25.6-11,37.3h0.5c6-11.7,9.7-24.2,11.1-37.2
							c0.4-3.8,0.6-7.6,0.6-11.5c0-51.2-33.3-108-78.9-166.2H114.1z"/>
					</g>
				</g>
				<g class="st3">
					<g>
						<defs>
							<rect id="SVGID_119_" x="112.8" y="108" width="80" height="214.9"/>
						</defs>
						<clipPath id="SVGID_14_">
							<use xlink:href="#SVGID_119_"  style="overflow:visible;"/>
						</clipPath>
						<path class="st13" d="M112.8,108c49.3,62.8,84.5,123.9,78.9,178.2c-1.3,13-4.9,25.2-10.7,36.8h0.5
							c5.8-11.6,9.5-23.9,10.8-36.7c0.4-3.8,0.6-7.6,0.6-11.5c0-51.4-33.5-108.4-79.3-166.8H112.8z"/>
					</g>
				</g>
				<g class="st3">
					<g>
						<defs>
							<rect id="SVGID_121_" x="111.6" y="108" width="80.5" height="214.9"/>
						</defs>
						<clipPath id="SVGID_15_">
							<use xlink:href="#SVGID_121_"  style="overflow:visible;"/>
						</clipPath>
						<path class="st14" d="M111.6,108c49.6,63,84.9,124.3,79.4,178.8c-1.3,12.7-4.8,24.8-10.4,36.2h0.5
							c5.6-11.4,9.1-23.5,10.4-36.1c0.4-3.8,0.6-7.6,0.6-11.5c0-51.6-33.8-108.8-79.8-167.3H111.6z"/>
					</g>
				</g>
				<g class="st3">
					<g>
						<defs>
							<rect id="SVGID_123_" x="110.4" y="108" width="80.9" height="214.9"/>
						</defs>
						<clipPath id="SVGID_16_">
							<use xlink:href="#SVGID_123_"  style="overflow:visible;"/>
						</clipPath>
						<path class="st15" d="M110.4,108c49.8,63.2,85.4,124.7,79.8,179.3c-1.3,12.6-4.7,24.4-10.2,35.6h0.6
							c5.5-11.2,8.9-23.2,10.1-35.5c0.4-3.8,0.6-7.6,0.6-11.5c0-51.7-34-109.1-80.2-167.9H110.4z"/>
					</g>
				</g>
				<g class="st3">
					<g>
						<defs>
							<rect id="SVGID_125_" x="109.2" y="108" width="81.4" height="214.9"/>
						</defs>
						<clipPath id="SVGID_17_">
							<use xlink:href="#SVGID_125_"  style="overflow:visible;"/>
						</clipPath>
						<path class="st16" d="M109.2,108c50,63.4,85.8,125.1,80.3,179.9c-1.3,12.4-4.6,24-9.9,35h0.6c5.3-11.1,8.6-22.8,9.9-35
							c0.4-3.8,0.6-7.6,0.6-11.5c0-51.9-34.2-109.5-80.7-168.4H109.2z"/>
					</g>
				</g>
				<g class="st3">
					<g>
						<defs>
							<rect id="SVGID_127_" x="107.9" y="108" width="81.8" height="214.9"/>
						</defs>
						<clipPath id="SVGID_18_">
							<use xlink:href="#SVGID_127_"  style="overflow:visible;"/>
						</clipPath>
						<path class="st17" d="M107.9,108c50.3,63.6,86.3,125.5,80.7,180.5c-1.2,12.1-4.5,23.6-9.7,34.5h0.6
							c5.1-10.9,8.4-22.4,9.6-34.4c0.4-3.8,0.6-7.6,0.6-11.5c0-52.1-34.4-109.8-81.1-169H107.9z"/>
					</g>
				</g>
				<g class="st3">
					<g>
						<defs>
							<rect id="SVGID_129_" x="106.7" y="108" width="82.3" height="214.9"/>
						</defs>
						<clipPath id="SVGID_19_">
							<use xlink:href="#SVGID_129_"  style="overflow:visible;"/>
						</clipPath>
						<path class="st18" d="M106.7,108c47,59.4,81.7,117.4,81.7,169.6c0,3.9-0.2,7.7-0.6,11.5c-1.2,11.9-4.4,23.2-9.4,33.9h0.6
							c5-10.7,8.2-22.1,9.4-33.8c0.4-3.8,0.6-7.7,0.6-11.5c0-52.2-34.6-110.2-81.6-169.6H106.7z"/>
					</g>
				</g>
				<g class="st3">
					<g>
						<defs>
							<rect id="SVGID_131_" x="105.4" y="108" width="82.7" height="214.9"/>
						</defs>
						<clipPath id="SVGID_20_">
							<use xlink:href="#SVGID_131_"  style="overflow:visible;"/>
						</clipPath>
						<path class="st19" d="M105.4,108c47.2,59.6,82.2,117.8,82.2,170.2c0,3.8-0.2,7.6-0.6,11.4c-1.2,11.7-4.3,22.8-9.2,33.3h0.6
							c4.8-10.6,8-21.7,9.2-33.3c0.4-3.8,0.6-7.6,0.6-11.5c0-52.4-34.8-110.6-82-170.2H105.4z"/>
					</g>
				</g>
				<g class="st3">
					<g>
						<defs>
							<rect id="SVGID_133_" x="104.2" y="108" width="83.2" height="214.9"/>
						</defs>
						<clipPath id="SVGID_21_">
							<use xlink:href="#SVGID_133_"  style="overflow:visible;"/>
						</clipPath>
						<path class="st20" d="M104.2,108c50.9,64.2,87.7,126.8,82,182.2c-1.2,11.5-4.2,22.4-9,32.8h0.6c4.7-10.4,7.8-21.3,8.9-32.7
							c0.4-3.8,0.6-7.6,0.6-11.5c0-52.6-35.1-110.9-82.5-170.7H104.2z"/>
					</g>
				</g>
				<g class="st3">
					<g>
						<defs>
							<rect id="SVGID_135_" x="102.9" y="108" width="83.6" height="214.9"/>
						</defs>
						<clipPath id="SVGID_22_">
							<use xlink:href="#SVGID_135_"  style="overflow:visible;"/>
						</clipPath>
						<path class="st21" d="M102.9,108c51.2,64.4,88.2,127.1,82.5,182.7c-1.1,11.3-4.1,22-8.7,32.2h0.5c4.6-10.2,7.6-21,8.7-32.1
							c0.4-3.8,0.6-7.6,0.6-11.5c0-52.8-35.3-111.3-82.9-171.3H102.9z"/>
					</g>
				</g>
				<g class="st3">
					<g>
						<defs>
							<rect id="SVGID_137_" x="101.7" y="108" width="84.1" height="214.9"/>
						</defs>
						<clipPath id="SVGID_23_">
							<use xlink:href="#SVGID_137_"  style="overflow:visible;"/>
						</clipPath>
						<path class="st22" d="M101.7,108c51.4,64.6,88.7,127.6,83,183.3c-1.1,11.1-4.1,21.6-8.5,31.6h0.6c4.4-10.1,7.3-20.6,8.5-31.6
							c0.4-3.8,0.6-7.6,0.6-11.5c0-52.9-35.5-111.7-83.4-171.8H101.7z"/>
					</g>
				</g>
				<g class="st3">
					<g>
						<defs>
							<rect id="SVGID_139_" x="100.5" y="108" width="84.6" height="214.9"/>
						</defs>
						<clipPath id="SVGID_24_">
							<use xlink:href="#SVGID_139_"  style="overflow:visible;"/>
						</clipPath>
						<path class="st23" d="M100.5,108c51.7,64.8,89.2,128,83.4,183.9c-1.1,10.9-4,21.2-8.2,31.1h0.6c4.3-9.9,7.1-20.3,8.2-31
							c0.4-3.8,0.6-7.7,0.6-11.5c0-53.1-35.8-112.1-83.8-172.4H100.5z"/>
					</g>
				</g>
				<g class="st3">
					<g>
						<defs>
							<rect id="SVGID_141_" x="99.2" y="108" width="85" height="214.9"/>
						</defs>
						<clipPath id="SVGID_25_">
							<use xlink:href="#SVGID_141_"  style="overflow:visible;"/>
						</clipPath>
						<path class="st24" d="M99.2,108c51.9,65,89.6,128.4,83.9,184.5c-1.1,10.7-3.9,20.8-8,30.5h0.6c4.1-9.7,6.9-19.9,8-30.4
							c0.4-3.8,0.6-7.6,0.6-11.5c0-53.3-36-112.4-84.3-173H99.2z"/>
					</g>
				</g>
				<g class="st3">
					<g>
						<defs>
							<rect id="SVGID_143_" x="98" y="108" width="85.5" height="214.9"/>
						</defs>
						<clipPath id="SVGID_26_">
							<use xlink:href="#SVGID_143_"  style="overflow:visible;"/>
						</clipPath>
						<path class="st25" d="M98,108c52.1,65.2,90.1,128.8,84.3,185c-1.1,10.5-3.8,20.4-7.8,29.9h0.6c4-9.6,6.7-19.5,7.8-29.9
							c0.4-3.8,0.6-7.6,0.6-11.5c0-53.4-36.2-112.8-84.7-173.6H98z"/>
					</g>
				</g>
				<g class="st3">
					<g>
						<defs>
							<rect id="SVGID_145_" x="96.8" y="108" width="85.9" height="214.9"/>
						</defs>
						<clipPath id="SVGID_27_">
							<use xlink:href="#SVGID_145_"  style="overflow:visible;"/>
						</clipPath>
						<path class="st26" d="M96.8,108c48.8,61,85.3,120.6,85.3,174.1c0,3.8-0.2,7.6-0.6,11.4c-1.1,10.3-3.7,20-7.5,29.4h0.6
							c3.9-9.4,6.5-19.1,7.5-29.3c0.4-3.8,0.6-7.6,0.6-11.5c0-53.6-36.4-113.2-85.2-174.1H96.8z"/>
					</g>
				</g>
				<g class="st3">
					<g>
						<defs>
							<rect id="SVGID_147_" x="95.5" y="108" width="86.4" height="214.9"/>
						</defs>
						<clipPath id="SVGID_28_">
							<use xlink:href="#SVGID_147_"  style="overflow:visible;"/>
						</clipPath>
						<path class="st27" d="M95.5,108c52.6,65.6,91,129.6,85.2,186.1c-1,10.1-3.6,19.6-7.3,28.8h0.5c3.7-9.2,6.3-18.8,7.3-28.7
							c0.4-3.8,0.6-7.6,0.6-11.5c0-53.8-36.6-113.5-85.6-174.7H95.5z"/>
					</g>
				</g>
				<g class="st3">
					<g>
						<defs>
							<rect id="SVGID_149_" x="94.3" y="108" width="86.8" height="214.9"/>
						</defs>
						<clipPath id="SVGID_29_">
							<use xlink:href="#SVGID_149_"  style="overflow:visible;"/>
						</clipPath>
						<path class="st28" d="M94.3,108c49.3,61.4,86.2,121.4,86.2,175.3c0,3.8-0.2,7.6-0.6,11.4c-1,9.9-3.4,19.2-7,28.3h0.6
							c3.6-9,6-18.4,7-28.2c0.4-3.8,0.6-7.6,0.6-11.5c0-53.9-36.8-113.9-86-175.3H94.3z"/>
					</g>
				</g>
				<g class="st3">
					<g>
						<defs>
							<rect id="SVGID_151_" x="93" y="108" width="87.3" height="214.9"/>
						</defs>
						<clipPath id="SVGID_30_">
							<use xlink:href="#SVGID_151_"  style="overflow:visible;"/>
						</clipPath>
						<path class="st29" d="M93,108c53,66,91.9,130.4,86.1,187.3c-1,9.6-3.3,18.8-6.8,27.7h0.6c3.4-8.8,5.7-18,6.7-27.6
							c0.4-3.8,0.6-7.6,0.6-11.5c0-54.1-37.1-114.3-86.5-175.8H93z"/>
					</g>
				</g>
				<g class="st3">
					<g>
						<defs>
							<rect id="SVGID_153_" x="91.8" y="108" width="87.8" height="214.9"/>
						</defs>
						<clipPath id="SVGID_31_">
							<use xlink:href="#SVGID_153_"  style="overflow:visible;"/>
						</clipPath>
						<path class="st30" d="M91.8,108c53.3,66.2,92.4,130.8,86.6,187.8c-1,9.4-3.2,18.4-6.6,27.1h0.6c3.3-8.6,5.5-17.6,6.5-27
							c0.4-3.8,0.6-7.6,0.6-11.5c0-54.2-37.3-114.6-87-176.4H91.8z"/>
					</g>
				</g>
				<g class="st3">
					<g>
						<defs>
							<rect id="SVGID_155_" x="90.5" y="108" width="88.2" height="214.9"/>
						</defs>
						<clipPath id="SVGID_32_">
							<use xlink:href="#SVGID_155_"  style="overflow:visible;"/>
						</clipPath>
						<path class="st31" d="M90.5,108c53.5,66.4,92.9,131.2,87.1,188.4c-0.9,9.2-3.1,18-6.3,26.5h0.7c3.2-8.5,5.3-17.3,6.2-26.5
							c0.4-3.8,0.6-7.6,0.6-11.5c0-54.4-37.6-115-87.5-176.9H90.5z"/>
					</g>
				</g>
				<g class="st3">
					<g>
						<defs>
							<rect id="SVGID_157_" x="89.2" y="108" width="88.7" height="214.9"/>
						</defs>
						<clipPath id="SVGID_33_">
							<use xlink:href="#SVGID_157_"  style="overflow:visible;"/>
						</clipPath>
						<path class="st32" d="M89.2,108c50.2,62.2,88.1,123,88.1,177.5c0,3.8-0.2,7.6-0.6,11.4c-0.9,9-3,17.7-6.1,26h0.7
							c3.1-8.3,5.1-16.9,6-25.9c0.4-3.8,0.6-7.6,0.6-11.5c0-54.6-37.8-115.4-87.9-177.5H89.2z"/>
					</g>
				</g>
				<g class="st3">
					<g>
						<defs>
							<rect id="SVGID_159_" x="88" y="108" width="89.1" height="214.9"/>
						</defs>
						<clipPath id="SVGID_34_">
							<use xlink:href="#SVGID_159_"  style="overflow:visible;"/>
						</clipPath>
						<path class="st33" d="M88,108c50.4,62.4,88.6,123.4,88.6,178.1c0,3.8-0.2,7.7-0.6,11.5c-0.9,8.8-2.9,17.3-5.8,25.4h0.7
							c2.9-8.1,4.9-16.6,5.8-25.3c0.4-3.8,0.6-7.6,0.6-11.5c0-54.7-38-115.8-88.4-178.1H88z"/>
					</g>
				</g>
				<g class="st3">
					<g>
						<defs>
							<rect id="SVGID_161_" x="86.7" y="108" width="89.6" height="214.9"/>
						</defs>
						<clipPath id="SVGID_35_">
							<use xlink:href="#SVGID_161_"  style="overflow:visible;"/>
						</clipPath>
						<path class="st34" d="M86.7,108c54.2,67,94.3,132.4,88.5,190.1c-0.9,8.6-2.8,16.9-5.6,24.8h0.7c2.8-8,4.7-16.2,5.5-24.8
							c0.4-3.8,0.6-7.6,0.6-11.5c0-54.9-38.3-116.1-88.9-178.7H86.7z"/>
					</g>
				</g>
				<g class="st3">
					<g>
						<defs>
							<rect id="SVGID_163_" x="85.5" y="108" width="90.1" height="214.9"/>
						</defs>
						<clipPath id="SVGID_36_">
							<use xlink:href="#SVGID_163_"  style="overflow:visible;"/>
						</clipPath>
						<path class="st35" d="M85.5,108c54.4,67.1,94.8,132.8,88.9,190.6c-0.9,8.4-2.7,16.5-5.4,24.3h0.6c2.7-7.8,4.5-15.8,5.4-24.2
							c0.4-3.8,0.6-7.6,0.6-11.5c0-55-38.5-116.5-89.3-179.2H85.5z"/>
					</g>
				</g>
				<g class="st3">
					<g>
						<defs>
							<rect id="SVGID_165_" x="84.3" y="108" width="90.5" height="214.9"/>
						</defs>
						<clipPath id="SVGID_37_">
							<use xlink:href="#SVGID_165_"  style="overflow:visible;"/>
						</clipPath>
						<path class="st36" d="M84.3,108c54.7,67.4,95.3,133.2,89.3,191.2c-0.8,8.2-2.6,16.1-5.2,23.7h0.6c2.6-7.6,4.4-15.5,5.2-23.7
							c0.4-3.8,0.6-7.6,0.6-11.5c0-55.2-38.7-116.9-89.7-179.8H84.3z"/>
					</g>
				</g>
				<g class="st3">
					<g>
						<defs>
							<rect id="SVGID_167_" x="83" y="108" width="91" height="214.9"/>
						</defs>
						<clipPath id="SVGID_38_">
							<use xlink:href="#SVGID_167_"  style="overflow:visible;"/>
						</clipPath>
						<path class="st37" d="M83,108c51.3,63.2,90.4,125,90.4,180.3c0,3.8-0.2,7.6-0.6,11.4c-0.8,8-2.6,15.7-5.1,23.2h0.7
							c2.5-7.4,4.2-15.1,5-23.1c0.4-3.8,0.6-7.6,0.6-11.5c0-55.4-38.9-117.2-90.2-180.3H83z"/>
					</g>
				</g>
				<g class="st3">
					<g>
						<defs>
							<rect id="SVGID_169_" x="82.9" y="108.3" width="90.4" height="214.6"/>
						</defs>
						<clipPath id="SVGID_39_">
							<use xlink:href="#SVGID_169_"  style="overflow:visible;"/>
						</clipPath>
						<path class="st38" d="M82.9,108.3v1c54.6,67.3,95.1,133.1,89.2,191.1c-0.8,7.8-2.5,15.3-4.9,22.6h0.7
							c2.4-7.3,4.1-14.7,4.9-22.5c0.4-3.8,0.6-7.6,0.6-11.5C173.2,233.5,134.2,171.5,82.9,108.3"/>
					</g>
				</g>
				<g class="st3">
					<g>
						<defs>
							<rect id="SVGID_171_" x="82.9" y="109.9" width="89.6" height="213.1"/>
						</defs>
						<clipPath id="SVGID_40_">
							<use xlink:href="#SVGID_171_"  style="overflow:visible;"/>
						</clipPath>
						<path class="st39" d="M82.9,109.9v1c54.2,67,94.3,132.4,88.4,190.1c-0.8,7.6-2.4,14.9-4.8,22h0.7c2.3-7.1,3.9-14.4,4.7-21.9
							c0.4-3.8,0.6-7.6,0.6-11.5C172.4,234.3,133.8,172.8,82.9,109.9"/>
					</g>
				</g>
				<g class="st3">
					<g>
						<defs>
							<rect id="SVGID_173_" x="82.9" y="111.4" width="88.8" height="211.6"/>
						</defs>
						<clipPath id="SVGID_41_">
							<use xlink:href="#SVGID_173_"  style="overflow:visible;"/>
						</clipPath>
						<path class="st40" d="M82.9,111.4v1c53.8,66.6,93.4,131.7,87.6,189.1c-0.8,7.4-2.4,14.5-4.6,21.4h0.7c2.2-6.9,3.8-14,4.6-21.4
							c0.4-3.8,0.6-7.6,0.6-11.5C171.6,235.2,133.4,174,82.9,111.4"/>
					</g>
				</g>
				<g class="st3">
					<g>
						<defs>
							<rect id="SVGID_175_" x="82.9" y="113" width="88" height="210"/>
						</defs>
						<clipPath id="SVGID_42_">
							<use xlink:href="#SVGID_175_"  style="overflow:visible;"/>
						</clipPath>
						<path class="st41" d="M82.9,113v1c53.4,66.3,92.6,131,86.8,188.1c-0.7,7.2-2.3,14.1-4.4,20.9h0.7c2.1-6.7,3.7-13.6,4.4-20.8
							c0.4-3.8,0.6-7.7,0.6-11.5C170.9,236.1,133,175.2,82.9,113"/>
					</g>
				</g>
				<g class="st3">
					<g>
						<defs>
							<rect id="SVGID_177_" x="82.9" y="114.5" width="87.2" height="208.5"/>
						</defs>
						<clipPath id="SVGID_43_">
							<use xlink:href="#SVGID_177_"  style="overflow:visible;"/>
						</clipPath>
						<path class="st42" d="M82.9,114.5v1.1c53,65.9,91.8,130.3,86,187.1c-0.7,7-2.2,13.7-4.2,20.3h0.7c2-6.6,3.5-13.3,4.2-20.3
							c0.4-3.8,0.6-7.6,0.6-11.5C170.1,236.9,132.6,176.4,82.9,114.5"/>
					</g>
				</g>
				<g class="st3">
					<g>
						<defs>
							<rect id="SVGID_179_" x="82.9" y="116.1" width="86.4" height="206.9"/>
						</defs>
						<clipPath id="SVGID_44_">
							<use xlink:href="#SVGID_179_"  style="overflow:visible;"/>
						</clipPath>
						<path class="st43" d="M82.9,116.1v1.1c49,61.2,85.8,121,85.8,174.7c0,3.8-0.2,7.7-0.6,11.4c-0.7,6.8-2.2,13.4-4.1,19.8h0.7
							c1.9-6.4,3.4-12.9,4.1-19.7c0.4-3.8,0.6-7.6,0.6-11.5C169.3,237.7,132.2,177.6,82.9,116.1"/>
					</g>
				</g>
				<g class="st3">
					<g>
						<defs>
							<rect id="SVGID_181_" x="82.9" y="117.6" width="85.6" height="205.4"/>
						</defs>
						<clipPath id="SVGID_45_">
							<use xlink:href="#SVGID_181_"  style="overflow:visible;"/>
						</clipPath>
						<path class="st44" d="M82.9,117.6v1.1c52.2,65.2,90.2,128.9,84.4,185.1c-0.7,6.6-2.1,13-3.9,19.2h0.7
							c1.8-6.2,3.2-12.5,3.9-19.1c0.4-3.8,0.6-7.6,0.6-11.5C168.5,238.6,131.8,178.8,82.9,117.6"/>
					</g>
				</g>
				<g class="st3">
					<g>
						<defs>
							<rect id="SVGID_183_" x="82.9" y="119.1" width="84.9" height="203.9"/>
						</defs>
						<clipPath id="SVGID_46_">
							<use xlink:href="#SVGID_183_"  style="overflow:visible;"/>
						</clipPath>
						<path class="st45" d="M82.9,119.1v1.1c51.8,64.9,89.3,128.2,83.6,184.1c-0.7,6.4-2,12.6-3.8,18.6h0.7c1.7-6,3.1-12.2,3.7-18.5
							c0.4-3.8,0.6-7.6,0.6-11.5C167.7,239.5,131.5,180,82.9,119.1"/>
					</g>
				</g>
			</g>
		</g>
		<path class="st46" d="M59.9,34.4c-7.1,7.2-15.5,9.5-25.3,7.8c0-2.5,0-4.9,0-7.3c0-3.8,0-7.6,0-11.4c0-2.1,0.9-3.2,3-3.3
			c3-0.2,6-0.1,9.1-0.1c0.3,0,0.9,0.7,0.9,1c0.1,2.9,0,5.7,0.1,8.6c0,1-0.6,1.2-1.3,1c-0.8-0.1-2,0.6-2.2-0.9
			c-0.1-1.4-0.2-2.8-0.3-4.1c0-0.8-0.3-1-1.1-1.1c-3.5-0.2-3.5-0.3-3.5,3.2c0,2.8,0.1,5.5,0,8.3c0,1.2,0.4,1.6,1.6,1.7
			c5.4,0.4,10-1.4,14.1-4.9c0.7-0.6,0.8-1.1,0.4-1.8c-1.2-2.3-2.4-4.5-3.6-6.8c-2.4-4.6-3-9.7-3.5-14.8C48.1,8.7,48,7.9,48,7.1
			c0-0.1,0.1-0.2,0.1-0.4h22.6v12.5H60.2c-0.1-1.1-0.3-2.1-0.4-3.4c1.7-0.1,3.2-0.3,4.8-0.3c1.1,0,1.5-0.4,1.5-1.6
			C66,10,66.5,10.8,63,10.7c-2.9,0-5.7,0-8.6,0c-0.8,0-1.3,0.1-1.3,1.1C53,17.7,54.6,23,58.8,27.3c0.1,0.1,0.3,0.2,0.4,0.3
			c2-1.3,3.9-2.7,5.9-3.8c4.7-2.6,9.8-3.7,15.2-3.9c3.3-0.1,4.3,0.9,4.2,4.1c0,5.1,0,10.2,0,15.4c0,0.9,0,1.7,0,2.7
			c-0.4,0.1-0.7,0.2-1.1,0.2c-3.6,0-7.2,0-10.8,0c-1,0-1.4-0.3-1.3-1.3c0.1-2.1-0.1-4.3,0.2-6.4c0.1-1.1,0.9-2.1,1.4-3.2
			c1.9,1.3,2.8,2.8,2.7,4.7c-0.1,1.3,0.4,1.8,1.7,1.7c3.4-0.1,2.9,0.3,2.9-3c0-2.9,0-5.8,0-8.8c0-0.8-0.1-1.4-1.1-1.4
			c-6.3-0.1-11.7,2-16.5,6.3c0.9,1,1.8,1.9,2.6,2.9c5.3,6.3,6.7,13.7,5.7,21.7c0,0.4-0.7,0.9-1,0.9c-6.4,0.1-12.7,0.1-19.1,0
			c-0.4,0-1.1-0.6-1.1-1c-0.4-2.7-0.5-5.5-1-8.2c-0.5-2.9,1.3-3.9,3.7-4.3c1.8-0.3,3.6-0.1,5.4-0.1c1.3,0,1,1.1,1.1,1.8
			c0.2,1.2-0.2,2.2-1.5,2.5c-0.9,0.2-1.8,0.3-2.7,0.3c-1.1,0-1.6,0.4-1.6,1.6c0,0.4,0,0.8-0.1,1.2c-0.2,1.1,0.2,1.5,1.3,1.4
			c3.5,0,7,0,10.5,0c0.9,0,1.4-0.2,1.5-1.3C67,44.1,64.2,39.1,59.9,34.4"/>
		<path class="st47" d="M17.5,69.9c-1.1-0.4-2.1-0.6-2.9-0.6c-0.8,0-1.4,0.1-1.8,0.4c-0.5,0.3-0.7,0.7-0.7,1.2c0,0.7,0.3,1.2,1,1.6
			c0.7,0.4,1.7,0.8,3,1.1c1.4,0.4,2.5,0.8,3.4,1.2c0.9,0.4,1.6,1,2.3,1.8c0.6,0.8,0.9,1.8,0.9,3.1c0,1.3-0.3,2.4-1,3.3
			c-0.7,0.9-1.6,1.6-2.8,2.1c-1.2,0.5-2.5,0.7-4,0.7c-1.6,0-3.2-0.3-4.7-0.9s-2.9-1.3-4-2.3l1.8-3.7c1,0.9,2.2,1.6,3.5,2.2
			c1.3,0.5,2.5,0.8,3.6,0.8c0.9,0,1.6-0.2,2.2-0.5c0.5-0.3,0.8-0.8,0.8-1.5c0-0.5-0.2-0.9-0.5-1.3c-0.4-0.3-0.8-0.6-1.3-0.8
			c-0.5-0.2-1.3-0.4-2.2-0.7c-1.4-0.4-2.5-0.8-3.3-1.1c-0.9-0.4-1.6-1-2.2-1.7c-0.6-0.8-0.9-1.8-0.9-3.1c0-1.2,0.3-2.2,1-3.1
			s1.5-1.6,2.7-2.1c1.2-0.5,2.5-0.7,4-0.7c1.4,0,2.7,0.2,4,0.6c1.3,0.4,2.5,0.9,3.5,1.6l-1.7,3.7C19.7,70.8,18.7,70.3,17.5,69.9"/>
		<polygon class="st47" points="25.8,65.9 30.7,65.9 36.9,78.1 43.1,65.9 48,65.9 48,85.7 44,85.7 44,72.3 38.3,83.7 35.5,83.7 
			29.8,72.3 29.8,85.7 25.8,85.7 		"/>
		<path class="st47" d="M67.1,85.7l-1.6-3.9h-9.2l-1.6,3.9h-4.6l8.6-19.9h4.6l8.5,19.9H67.1z M57.8,78.3h6.3l-3.1-7.7L57.8,78.3z"/>
		<path class="st47" d="M86.1,85.7L83,80.1h-0.4h-4.1v5.7h-4.5V65.9h8.6c2.6,0,4.6,0.6,6,1.8c1.4,1.2,2.1,2.9,2.1,5.1
			c0,1.5-0.3,2.8-1,3.9c-0.6,1.1-1.6,1.9-2.8,2.5l4.2,6.6H86.1z M78.4,76.3h4.1c1.2,0,2.2-0.3,2.9-0.9c0.7-0.6,1-1.4,1-2.5
			c0-1.1-0.3-1.9-1-2.5c-0.7-0.6-1.6-0.8-2.9-0.8h-4.1V76.3z"/>
		<polygon class="st47" points="92.5,65.9 109.1,65.9 109.1,69.7 103,69.7 103,85.7 98.6,85.7 98.6,69.7 92.5,69.7 		"/>
		<path class="st1" d="M7.7,98.4V99c0,0.5,0.2,1,0.8,1c0.5,0,0.7-0.4,0.7-0.9c0-0.8-0.6-1.1-1.2-1.4c-0.7-0.4-1.2-0.7-1.6-1.2
			c-0.4-0.5-0.6-1-0.6-1.8c0-1.7,1-2.6,2.7-2.6c1.9,0,2.8,1.2,2.7,2.9h-2c0-0.5,0-1.3-0.7-1.3c-0.4,0-0.7,0.2-0.7,0.6
			c-0.1,0.5,0.2,0.8,0.6,1.1c0.8,0.5,1.5,0.8,2,1.3c0.5,0.5,0.8,1.1,0.8,2.2c0,1.7-1,2.7-2.7,2.7c-1.9,0-2.8-1.1-2.8-2.3v-1H7.7z"/>
		<path class="st1" d="M12.1,92.3h2.1v6.8c0,0.4,0.1,0.8,0.7,0.8c0.6,0,0.7-0.5,0.7-0.9v-6.8h2.1v6.6c0,1.5-0.7,2.7-2.9,2.7
			c-1.8,0-2.9-0.9-2.9-2.7V92.3z"/>
		<path class="st1" d="M20.9,101.4h-2.1v-9.1h3.1c1.7,0,2.6,0.7,2.6,2.5c0,1-0.2,1.7-1.1,2.1v0c0.6,0.1,1,0.5,1.1,1.2
			c0.1,0.7,0.1,2.3,0.2,2.9c0,0.1,0.1,0.2,0.2,0.3v0.1h-2.3c-0.1-0.2-0.1-0.3-0.1-0.5c0-0.8,0-1.5,0-2.1c-0.1-0.6-0.2-0.9-0.7-1
			h-0.7V101.4z M20.9,96.2h0.7c0.6,0,0.8-0.6,0.8-1.1c0-1.1-0.4-1.1-1.5-1.1V96.2z"/>
		<rect x="25.6" y="92.3" class="st1" width="2.1" height="9.1"/>
		<path class="st1" d="M33.1,101.4l-0.1-0.8h0c-0.4,0.8-0.9,1-1.8,1c-1.8,0-2.4-1.2-2.4-2.9V95c0-2,0.9-2.9,2.9-2.9
			c1.8,0,2.9,0.8,2.9,2.6v0.7h-2.1v-0.5c0-0.8-0.1-1.2-0.7-1.2c-0.7,0-0.8,0.4-0.8,0.9v4.5c0,0.5,0.2,0.8,0.8,0.8
			c0.7,0,0.7-0.6,0.7-1.2v-0.7h-0.8v-1.6h2.9v4.9H33.1z"/>
		<rect x="35.7" y="92.3" class="st1" width="2.1" height="9.1"/>
		<path class="st1" d="M39,101.4v-9.1h2.3c0.8,0,1.7,0,2.4,0.4c0.8,0.5,1,1.4,1,2.2v4c0,0.9-0.3,1.6-0.9,2c-0.6,0.4-1.2,0.4-1.9,0.4
			H39z M41.1,99.8c1.4,0.1,1.4-0.5,1.4-1.7v-3c0-1.1-0.4-1.1-1.4-1.1V99.8z"/>
		<polygon class="st1" points="45.7,101.4 45.7,92.3 50.6,92.3 50.6,94.2 47.9,94.2 47.9,95.8 50.5,95.8 50.5,97.6 47.9,97.6 
			47.9,99.6 50.8,99.6 50.8,101.4 		"/>
		<polygon class="st1" points="53.6,96.3 53.6,96.4 53.8,101.4 51.8,101.4 51.8,92.3 53.9,92.3 55.6,97.4 55.6,97.4 55.4,92.3 
			57.4,92.3 57.4,101.4 55.3,101.4 		"/>
		<polygon class="st1" points="58.2,92.3 63.7,92.3 63.7,94.2 62,94.2 62,101.4 59.9,101.4 59.9,94.2 58.2,94.2 		"/>
		<path class="st1" d="M67.7,101.4v-9.1h2.5c0.8,0,2,0.1,2.6,0.8c0.5,0.6,0.6,1.2,0.6,2c0,1-0.2,2.1-1.2,2.5
			c-0.7,0.4-1.6,0.3-2.4,0.3v3.5H67.7z M69.8,96.2c0.4,0,0.9,0,1.2-0.2c0.2-0.2,0.3-0.6,0.3-0.9c0-0.4,0-0.9-0.4-1.1
			C70.7,94,70.4,94,70,94h-0.2V96.2z"/>
		<polygon class="st1" points="75.9,101.4 73.9,92.3 76,92.3 77.1,98.7 77.1,98.7 78.2,92.3 80.4,92.3 78.4,101.4 		"/>
		<polygon class="st1" points="80.8,92.3 86.3,92.3 86.3,94.2 84.6,94.2 84.6,101.4 82.4,101.4 82.4,94.2 80.8,94.2 		"/>
		<rect x="86.4" y="99.3" class="st1" width="2" height="2.1"/>
		<polygon class="st1" points="92.9,101.4 92.9,92.3 95.1,92.3 95.1,99.6 97.7,99.6 97.7,101.4 		"/>
		<polygon class="st1" points="97.2,92.3 102.7,92.3 102.7,94.2 101,94.2 101,101.4 98.9,101.4 98.9,94.2 97.2,94.2 		"/>
		<path class="st1" d="M103.6,101.4v-9.1h2.3c0.8,0,1.7,0,2.4,0.4c0.8,0.5,1,1.4,1,2.2v4c0,0.9-0.3,1.6-0.9,2
			c-0.6,0.4-1.2,0.4-1.9,0.4H103.6z M105.7,99.8c1.4,0.1,1.4-0.5,1.4-1.7v-3c0-1.1-0.4-1.1-1.4-1.1V99.8z"/>
		<rect x="110.7" y="99.3" class="st1" width="2" height="2.1"/>
	</g>
</g>
</svg>
